<svg width="36" height="36" viewBox="0 0 36 36" fill="none" xmlns="http://www.w3.org/2000/svg">
<path d="M8.14286 30.9714H7.97143C7.54286 30.9714 7.28571 30.6286 7.28571 30.2857V26.4286C7.28571 25.9143 7.28571 25.4 7.37143 24.8H7.2C7.11429 25.2286 7.02857 25.5714 6.94286 25.8286L5.31429 30.5429C5.22857 30.8857 4.88571 31.0572 4.54286 31.0572H4.28571C3.94286 31.0572 3.68571 30.8857 3.51429 30.5429L1.8 25.9143C1.71429 25.7429 1.62857 25.4 1.54286 24.8857C1.62857 25.6572 1.62857 26.3429 1.62857 26.8572V30.2857C1.62857 30.7143 1.28571 30.9714 0.942857 30.9714H0.771429C0.342857 30.9714 0 30.6286 0 30.2V24.1143C0 23.6857 0.342857 23.3429 0.771429 23.3429H1.88571C2.31429 23.3429 2.65714 23.6 2.74286 23.9429L4.11429 27.8857C4.2 28.2286 4.37143 28.5714 4.37143 29C4.45714 28.5714 4.54286 28.2286 4.71429 27.8857L6.08571 23.9429C6.25714 23.6 6.6 23.3429 6.94286 23.3429H7.97143C8.4 23.3429 8.74286 23.6857 8.74286 24.1143V30.2C9 30.6286 8.57143 30.9714 8.14286 30.9714Z" fill="#363535"/>
<path d="M14.7428 30.9714H11.4857C11.0571 30.9714 10.8 30.6286 10.8 30.2857V24.0286C10.8 23.6 11.1428 23.3429 11.4857 23.3429H14.5714C15 23.3429 15.2571 23.6857 15.2571 24.0286C15.2571 24.4572 14.9143 24.7143 14.5714 24.7143H12.5143V26.4286H14.4C14.8286 26.4286 15.0857 26.7714 15.0857 27.1143C15.0857 27.5429 14.7428 27.8 14.4 27.8H12.5143V29.5143H14.7428C15.1714 29.5143 15.4286 29.8572 15.4286 30.2C15.5143 30.7143 15.1714 30.9714 14.7428 30.9714Z" fill="#363535"/>
<path d="M22.6286 30.9714C22.1143 30.9714 21.7714 30.5429 21.7714 30.1143V27.8857H18.5143V30.1143C18.5143 30.6286 18.0857 30.9714 17.6571 30.9714C17.1428 30.9714 16.8 30.5429 16.8 30.1143V24.2C16.8 23.6857 17.2286 23.3429 17.6571 23.3429C18.1714 23.3429 18.5143 23.7714 18.5143 24.2V26.4286H21.7714V24.2C21.7714 23.6857 22.2 23.3429 22.6286 23.3429C23.1428 23.3429 23.4857 23.7714 23.4857 24.2V30.1143C23.5714 30.6286 23.1428 30.9714 22.6286 30.9714Z" fill="#363535"/>
<path d="M28.6286 27.8H27.0857V30.2C27.0857 30.6286 26.7428 30.9714 26.2286 30.9714H26.1428C25.7143 30.9714 25.2857 30.6286 25.2857 30.2V24.2C25.2857 23.7714 25.6286 23.4286 26.1428 23.4286H26.2286C26.6571 23.4286 27.0857 23.7714 27.0857 24.2V26.4286H28.6286C28.8 25.4857 29.2286 24.7143 29.8286 24.1143C30.5143 23.5143 31.2857 23.2571 32.3143 23.2571C33.4286 23.2571 34.2857 23.6 34.9714 24.2857C35.6571 24.9714 36 25.9143 36 27.1143C36 28.3143 35.6571 29.3429 34.9714 30.0286C34.2857 30.8 33.3428 31.1429 32.2286 31.1429C31.2857 31.1429 30.4286 30.8857 29.7428 30.2857C29.0571 29.6857 28.8 28.8286 28.6286 27.8ZM32.3143 24.7143C31.7143 24.7143 31.2857 24.9714 30.9428 25.4C30.6 25.8286 30.4286 26.4286 30.4286 27.2C30.4286 27.9714 30.6 28.6571 30.8571 29.0857C31.2 29.5143 31.6286 29.6857 32.2286 29.6857C32.8286 29.6857 33.2571 29.5143 33.6 29.0857C33.9428 28.6571 34.1143 28.0571 34.1143 27.2857C34.1143 26.5143 33.9428 25.8286 33.6857 25.4C33.4286 24.9714 32.9143 24.7143 32.3143 24.7143Z" fill="#363535"/>
<path d="M35.1429 17.7428H0.857143C0.342857 17.7428 0 17.4 0 16.8857V14.9143C0 14.4 0.342857 14.0571 0.857143 14.0571H35.1429C35.6571 14.0571 36 14.4 36 14.9143V16.8857C36 17.4 35.6571 17.7428 35.1429 17.7428Z" fill="#363535"/>
<path d="M35.1429 8.11427H0.857143C0.342857 8.11427 0 7.77142 0 7.25713V5.2857C0 4.77142 0.342857 4.42856 0.857143 4.42856H35.1429C35.6571 4.42856 36 4.77142 36 5.2857V7.25713C36 7.77142 35.6571 8.11427 35.1429 8.11427Z" fill="#363535"/>
</svg>
